<svg width="25" height="30" viewBox="0 0 25 30" fill="none" xmlns="http://www.w3.org/2000/svg">
<path d="M14.5 5.5C14.5 8.30734 12.4415 10.5 10 10.5C7.5585 10.5 5.5 8.30734 5.5 5.5C5.5 2.69266 7.5585 0.5 10 0.5C12.4415 0.5 14.5 2.69266 14.5 5.5Z" stroke="#101010"/>
<circle cx="13" cy="6" r="4.5" stroke="#302F2F"/>
<path d="M1 5H19V29H1V5Z" fill="#181818"/>
<path d="M19 5V29L21.5 23V6L19 5Z" fill="#181818"/>
<path d="M24 26V7L21.5 6V23L24 26Z" fill="#181818"/>
<path d="M19 29L24 26L21.5 23L19 29Z" fill="#181818"/>
<path d="M19 5H1V29H19M19 5V29M19 5L21.5 6M19 29L24 26M19 29L21.5 23M24 26V7L21.5 6M24 26L21.5 23M21.5 6V23" stroke="#FFFDFC"/>
</svg>
